<?xml version="1.0" encoding="UTF-8" standalone="no"?>
<!DOCTYPE svg PUBLIC "-//W3C//DTD SVG 20010904//EN" "http://www.w3.org/TR/2001/REC-SVG-20010904/DTD/svg10.dtd">
<svg
		version="1.0"
		width="390"
		height="390"
		viewBox="0 0 39 39"
		id="svg312"
		xmlns="http://www.w3.org/2000/svg">
	<!-- FLASK BEGIN -->
	<polygon
			points="30,12 36,12 36,9 39,9 39,6 33,6 33,9 30,9 "
			style="fill:#d46d49"
			id="polygon2"
			transform="translate(-6,-6)"/>
	<polygon
			points="36,12 36,9 39,9 39,15 33,15 33,12 "
			style="fill:#a94725"
			id="polygon4"
			transform="translate(-6,-6)"/>
	<polygon
			points="39,18 36,18 36,21 33,21 33,12 30,12 30,15 39,15 "
			style="fill:#973716"
			id="polygon6"
			transform="translate(-6,-6)"/>
	<polygon
			points="27,12 30,12 30,15 27,15 "
			style="fill:#5d8fc2"
			id="polygon8"
			transform="translate(-6,-6)"/>
	<polygon
			points="21,18 21,21 24,21 24,15 27,15 27,18 "
			style="fill:#b3cfec"
			id="polygon10"
			transform="translate(-6,-6)"/>
	<polygon
			points="15,33 12,33 12,27 18,27 18,21 21,21 21,24 15,24 "
			style="fill:#d4e5f7"
			id="polygon12"
			transform="translate(-6,-6)"/>
	<polygon
			points="24,27 24,24 21,24 21,33 18,33 18,27 "
			style="fill:#b3cfec"
			id="polygon14"
			transform="translate(-6,-6)"/>
	<polygon
			points="15,33 12,33 12,39 15,39 "
			style="fill:#b3cfec"
			id="polygon16"
			transform="translate(-6,-6)"/>
	<polygon
			points="39,39 39,27 36,27 36,42 15,42 15,39 18,39 18,45 33,45 33,39 "
			style="fill:#5d8fc2"
			id="polygon18"
			transform="translate(-6,-6)"/>
	<polygon
			points="36,24 36,27 33,27 33,18 30,18 30,24 "
			style="fill:#b3cfec"
			id="polygon20"
			transform="translate(-6,-6)"/>
	<polygon
			points="30,42 27,42 27,39 33,39 33,33 30,33 "
			style="fill:#8badd0"
			id="polygon22"
			transform="translate(-6,-6)"/>
	<!-- FLASK END -->
	<!-- TNT BEGIN -->
	<!-- top -->
	<polygon
			points="16,27 15,27 15,28 16,28 "
			style="fill:#db2908"
			id="polygon24"
			transform="translate(-6,-6)"/>
	<polygon
			points="16,28 15,28 15,32 16,32 "
			style="fill:#b10d23"
			id="polygon26"
			transform="translate(-6,-6)"/>
	<polygon
			points="17,27 16,27 16,28 17,28 "
			style="fill:#b00d23"
			id="polygon28"
			transform="translate(-6,-6)"/>
	<polygon
			points="17,28 16,28 16,32 17,32 "
			style="fill:#902d11"
			id="polygon30"
			transform="translate(-6,-6)"/>
	<polygon
			points="18,27 17,27 17,28 18,28 "
			style="fill:#eb4006"
			id="polygon32"
			transform="translate(-6,-6)"/>
	<polygon
			points="18,28 17,28 17,32 18,32 "
			style="fill:#db2d14"
			id="polygon34"
			transform="translate(-6,-6)"/>
	<polygon
			points="22,27 21,27 21,28 22,28 "
			style="fill:#ea4007"
			id="polygon36"
			transform="translate(-6,-6)"/>
	<polygon
			points="22,28 21,28 21,32 22,32 "
			style="fill:#db2d14"
			id="polygon38"
			transform="translate(-6,-6)"/>
	<polygon
			points="23,27 22,27 22,28 23,28 "
			style="fill:#ea4211"
			id="polygon40"
			transform="translate(-6,-6)"/>
	<polygon
			points="23,28 22,28 22,32 23,32 "
			style="fill:#db2f1a"
			id="polygon42"
			transform="translate(-6,-6)"/>
	<polygon
			points="24,27 23,27 23,28 24,28 "
			style="fill:#db2d14"
			id="polygon44"
			transform="translate(-6,-6)"/>
	<polygon
			points="24,28 23,28 23,32 24,32 "
			style="fill:#b11527"
			id="polygon46"
			transform="translate(-6,-6)"/>
	<polygon
			points="25,27 24,27 24,28 25,28 "
			style="fill:#b11427"
			id="polygon48"
			transform="translate(-6,-6)"/>
	<polygon
			points="25,28 24,28 24,32 25,32 "
			style="fill:#902d11"
			id="polygon50"
			transform="translate(-6,-6)"/>
	<polygon
			points="26,27 25,27 25,28 26,28 "
			style="fill:#ea4007"
			id="polygon52"
			transform="translate(-6,-6)"/>
	<polygon
			points="26,28 25,28 25,32 26,32 "
			style="fill:#db2d14"
			id="polygon54"
			transform="translate(-6,-6)"/>
	<polygon
			points="27,27 26,27 26,28 27,28 "
			style="fill:#ea4211"
			id="polygon56"
			transform="translate(-6,-6)"/>
	<polygon
			points="27,28 26,28 26,32 27,32 "
			style="fill:#db2f1a"
			id="polygon58"
			transform="translate(-6,-6)"/>
	<polygon
			points="28,27 27,27 27,28 28,28 "
			style="fill:#db2d14"
			id="polygon60"
			transform="translate(-6,-6)"/>
	<polygon
			points="28,28 27,28 27,32 28,32 "
			style="fill:#b11527"
			id="polygon62"
			transform="translate(-6,-6)"/>
	<polygon
			points="29,27 28,27 28,28 29,28 "
			style="fill:#b11427"
			id="polygon64"
			transform="translate(-6,-6)"/>
	<polygon
			points="29,28 28,28 28,32 29,32 "
			style="fill:#902d11"
			id="polygon66"
			transform="translate(-6,-6)"/>
	<polygon
			points="30,27 29,27 29,28 30,28 "
			style="fill:#ea4007"
			id="polygon68"
			transform="translate(-6,-6)"/>
	<polygon
			points="30,28 29,28 29,32 30,32 "
			style="fill:#db2d14"
			id="polygon70"
			transform="translate(-6,-6)"/>
	<polygon
			points="31,27 30,27 30,28 31,28 "
			style="fill:#ea4211"
			id="polygon72"
			transform="translate(-6,-6)"/>
	<polygon
			points="31,28 30,28 30,32 31,32 "
			style="fill:#db2f1a"
			id="polygon74"
			transform="translate(-6,-6)"/>
	<polygon
			points="32,27 31,27 31,28 32,28 "
			style="fill:#db2d14"
			id="polygon76"
			transform="translate(-6,-6)"/>
	<polygon
			points="32,28 31,28 31,32 32,32 "
			style="fill:#b11527"
			id="polygon78"
			transform="translate(-6,-6)"/>
	<polygon
			points="33,27 32,27 32,28 33,28 "
			style="fill:#b11427"
			id="polygon80"
			transform="translate(-6,-6)"/>
	<polygon
			points="33,28 32,28 32,32 33,32 "
			style="fill:#902d11"
			id="polygon82"
			transform="translate(-6,-6)"/>
	<polygon
			points="34,27 33,27 33,28 34,28 "
			style="fill:#ea4007"
			id="polygon84"
			transform="translate(-6,-6)"/>
	<polygon
			points="34,28 33,28 33,32 34,32 "
			style="fill:#db2d14"
			id="polygon86"
			transform="translate(-6,-6)"/>
	<polygon
			points="35,27 34,27 34,28 35,28 "
			style="fill:#ea4211"
			id="polygon88"
			transform="translate(-6,-6)"/>
	<polygon
			points="35,28 34,28 34,32 35,32 "
			style="fill:#db2f1a"
			id="polygon90"
			transform="translate(-6,-6)"/>
	<polygon
			points="36,27 35,27 35,28 36,28 "
			style="fill:#db2d14"
			id="polygon92"
			transform="translate(-6,-6)"/>
	<polygon
			points="36,28 35,28 35,32 36,32 "
			style="fill:#b11527"
			id="polygon94"
			transform="translate(-6,-6)"/>
	<!-- middle -->
	<rect
			x="8.9999952"
			y="26"
			width="1"
			height="1"
			style="fill:#ddd9d9"
			id="rect96"/>
	<rect
			x="8.9999952"
			y="27"
			width="1"
			height="1"
			style="fill:#cecece"
			id="rect98"/>
	<polygon
			points="16,36 17,36 17,35 18,35 18,34 15,34 15,35 16,35 "
			style="fill:#ddd9d9"
			id="polygon100"
			transform="translate(-6,-6)"/>
	<rect
			x="8.9999952"
			y="29"
			width="1"
			height="1"
			style="fill:#beb1b2"
			id="rect102"/>
	<rect
			x="8.9999952"
			y="30"
			width="1"
			height="1"
			style="fill:#cecece"
			id="rect104"/>
	<rect
			x="8.9999952"
			y="31"
			width="15"
			height="1"
			style="fill:#beb2b3"
			id="rect106"/>
	<rect
			x="9.9999943"
			y="26"
			width="2"
			height="2"
			style="fill:#ffffff"
			id="rect108"/>
	<polygon
			points="17,36 16,36 16,37 18,37 18,35 17,35 "
			style="fill:#ffffff"
			id="polygon110"
			transform="translate(-6,-6)"/>
	<rect
			x="11.999994"
			y="27"
			width="1"
			height="1"
			style="fill:#ded9d9"
			id="rect112"/>
	<rect
			x="11.999994"
			y="28"
			width="1"
			height="1"
			style="fill:#beb1b2"
			id="rect114"/>
	<rect
			x="11.999994"
			y="29"
			width="1"
			height="1"
			style="fill:#cecece"
			id="rect116"/>
	<rect
			x="11.999994"
			y="30"
			width="1"
			height="1"
			style="fill:#ddd9d9"
			id="rect118"/>
	<rect
			x="12.999994"
			y="27"
			width="1"
			height="1"
			style="fill:#313052"
			id="rect120"/>
	<rect
			x="12.999994"
			y="28"
			width="1"
			height="1"
			style="fill:#cfcfcf"
			id="rect122"/>
	<rect
			x="12.999994"
			y="29"
			width="1"
			height="1"
			style="fill:#dedad9"
			id="rect124"/>
	<rect
			x="12.999994"
			y="30"
			width="1"
			height="1"
			style="fill:#cecece"
			id="rect126"/>
	<rect
			x="13.999998"
			y="27"
			width="1"
			height="1"
			style="fill:#363455"
			id="rect128"/>
	<rect
			x="13.999998"
			y="28"
			width="1"
			height="1"
			style="fill:#111038"
			id="rect130"/>
	<rect
			x="13.999998"
			y="29"
			width="1"
			height="1"
			style="fill:#333254"
			id="rect132"/>
	<rect
			x="13.999998"
			y="30"
			width="1"
			height="1"
			style="fill:#0c0b37"
			id="rect134"/>
	<rect
			x="14.999998"
			y="26"
			width="1"
			height="1"
			style="fill:#cecfcf"
			id="rect136"/>
	<rect
			x="14.999998"
			y="27"
			width="1"
			height="1"
			style="fill:#090736"
			id="rect138"/>
	<rect
			x="14.999998"
			y="28"
			width="1"
			height="1"
			style="fill:#cfcfcf"
			id="rect140"/>
	<rect
			x="14.999998"
			y="29"
			width="1"
			height="1"
			style="fill:#ded9d9"
			id="rect142"/>
	<rect
			x="14.999998"
			y="30"
			width="1"
			height="1"
			style="fill:#cecece"
			id="rect144"/>
	<rect
			x="15.999998"
			y="26"
			width="1"
			height="1"
			style="fill:#cecece"
			id="rect146"/>
	<rect
			x="15.999998"
			y="27"
			width="1"
			height="1"
			style="fill:#dedada"
			id="rect148"/>
	<rect
			x="15.999998"
			y="28"
			width="1"
			height="1"
			style="fill:#cecece"
			id="rect150"/>
	<rect
			x="15.999998"
			y="29"
			width="1"
			height="1"
			style="fill:#ddd9d9"
			id="rect152"/>
	<rect
			x="15.999998"
			y="30"
			width="1"
			height="1"
			style="fill:#dedada"
			id="rect154"/>
	<rect
			x="17.000002"
			y="26"
			width="1"
			height="1"
			style="fill:#dedada"
			id="rect156"/>
	<rect
			x="17.000002"
			y="27"
			width="1"
			height="1"
			style="fill:#302f53"
			id="rect158"/>
	<rect
			x="17.000002"
			y="28"
			width="1"
			height="1"
			style="fill:#353455"
			id="rect160"/>
	<rect
			x="17.000002"
			y="29"
			width="1"
			height="1"
			style="fill:#323254"
			id="rect162"/>
	<rect
			x="17.000002"
			y="30"
			width="1"
			height="1"
			style="fill:#313053"
			id="rect164"/>
	<rect
			x="18.000006"
			y="26"
			width="1"
			height="1"
			style="fill:#ddd9d9"
			id="rect166"/>
	<rect
			x="18.000006"
			y="27"
			width="1"
			height="1"
			style="fill:#cfcfcf"
			id="rect168"/>
	<rect
			x="18.000006"
			y="28"
			width="1"
			height="1"
			style="fill:#313053"
			id="rect170"/>
	<rect
			x="18.000006"
			y="29"
			width="1"
			height="1"
			style="fill:#dedada"
			id="rect172"/>
	<rect
			x="18.000006"
			y="30"
			width="1"
			height="1"
			style="fill:#cecece"
			id="rect174"/>
	<rect
			x="19.00001"
			y="26"
			width="1"
			height="1"
			style="fill:#ddd9d9"
			id="rect176"/>
	<rect
			x="19.00001"
			y="27"
			width="1"
			height="1"
			style="fill:#cecece"
			id="rect178"/>
	<rect
			x="19.00001"
			y="28"
			width="1"
			height="1"
			style="fill:#cfcfcf"
			id="rect180"/>
	<rect
			x="19.00001"
			y="29"
			width="1"
			height="1"
			style="fill:#313053"
			id="rect182"/>
	<rect
			x="19.00001"
			y="30"
			width="1"
			height="1"
			style="fill:#cfcfcf"
			id="rect184"/>
	<rect
			x="20.000013"
			y="26"
			width="1"
			height="1"
			style="fill:#cecfcf"
			id="rect186"/>
	<rect
			x="20.000013"
			y="27"
			width="1"
			height="1"
			style="fill:#090836"
			id="rect188"/>
	<rect
			x="20.000013"
			y="28"
			width="1"
			height="1"
			style="fill:#333254"
			id="rect190"/>
	<rect
			x="20.000013"
			y="29"
			width="1"
			height="1"
			style="fill:#353455"
			id="rect192"/>
	<rect
			x="20.000013"
			y="30"
			width="1"
			height="1"
			style="fill:#0c0b37"
			id="rect194"/>
	<rect
			x="21.000017"
			y="26"
			width="1"
			height="1"
			style="fill:#cecece"
			id="rect196"/>
	<rect
			x="21.000017"
			y="27"
			width="1"
			height="1"
			style="fill:#dedada"
			id="rect198"/>
	<rect
			x="21.000017"
			y="28"
			width="1"
			height="1"
			style="fill:#cecece"
			id="rect200"/>
	<rect
			x="21.000017"
			y="29"
			width="1"
			height="1"
			style="fill:#cecece"
			id="rect202"/>
	<rect
			x="21.000017"
			y="30"
			width="1"
			height="1"
			style="fill:#cecece"
			id="rect204"/>
	<rect
			x="22.000023"
			y="26"
			width="1"
			height="1"
			style="fill:#dedada"
			id="rect206"/>
	<rect
			x="22.000023"
			y="27"
			width="1"
			height="1"
			style="fill:#302f53"
			id="rect208"/>
	<rect
			x="22.000023"
			y="28"
			width="1"
			height="1"
			style="fill:#dedada"
			id="rect210"/>
	<rect
			x="22.000023"
			y="29"
			width="1"
			height="1"
			style="fill:#cecece"
			id="rect212"/>
	<rect
			x="22.000023"
			y="30"
			width="1"
			height="1"
			style="fill:#cecece"
			id="rect214"/>
	<rect
			x="23.000023"
			y="26"
			width="1"
			height="1"
			style="fill:#dddada"
			id="rect216"/>
	<rect
			x="23.000023"
			y="27"
			width="1"
			height="1"
			style="fill:#343354"
			id="rect218"/>
	<rect
			x="23.000023"
			y="28"
			width="1"
			height="1"
			style="fill:#343354"
			id="rect220"/>
	<rect
			x="23.000023"
			y="29"
			width="1"
			height="1"
			style="fill:#151238"
			id="rect222"/>
	<rect
			x="23.000023"
			y="30"
			width="1"
			height="1"
			style="fill:#100e37"
			id="rect224"/>
	<rect
			x="24.000023"
			y="26"
			width="1"
			height="1"
			style="fill:#dddad9"
			id="rect226"/>
	<rect
			x="25.000023"
			y="26"
			width="1"
			height="1"
			style="fill:#ddd9d9"
			id="rect228"/>
	<rect
			x="26.000023"
			y="26"
			width="1"
			height="1"
			style="fill:#ffffff"
			id="rect230"/>
	<rect
			x="27.000023"
			y="26"
			width="1"
			height="1"
			style="fill:#ffffff"
			id="rect232"/>
	<rect
			x="27.000023"
			y="27"
			width="1"
			height="1"
			style="fill:#ffffff"
			id="rect234"/>
	<rect
			x="27.000023"
			y="28"
			width="1"
			height="1"
			style="fill:#ddd9d9"
			id="rect236"/>
	<rect
			x="27.000023"
			y="29"
			width="1"
			height="1"
			style="fill:#ffffff"
			id="rect238"/>
	<rect
			x="27.000023"
			y="30"
			width="1"
			height="1"
			style="fill:#ffffff"
			id="rect240"/>
	<rect
			x="27.000023"
			y="31"
			width="3"
			height="1"
			style="fill:#beb2b3"
			id="rect242"/>
	<rect
			x="28.000023"
			y="26"
			width="1"
			height="1"
			style="fill:#cecece"
			id="rect244"/>
	<rect
			x="28.000023"
			y="27"
			width="1"
			height="1"
			style="fill:#ddd9d9"
			id="rect246"/>
	<rect
			x="28.000023"
			y="28"
			width="1"
			height="1"
			style="fill:#beb1b2"
			id="rect248"/>
	<rect
			x="28.000023"
			y="29"
			width="1"
			height="1"
			style="fill:#cecece"
			id="rect250"/>
	<rect
			x="28.000023"
			y="30"
			width="1"
			height="1"
			style="fill:#ddd9d9"
			id="rect252"/>
	<rect
			x="29.000023"
			y="26"
			width="1"
			height="1"
			style="fill:#dedada"
			id="rect254"/>
	<rect
			x="29.000023"
			y="27"
			width="1"
			height="1"
			style="fill:#ddd9d9"
			id="rect256"/>
	<rect
			x="29.000023"
			y="28"
			width="1"
			height="1"
			style="fill:#cecece"
			id="rect258"/>
	<rect
			x="29.000023"
			y="29"
			width="1"
			height="1"
			style="fill:#ded9d9"
			id="rect260"/>
	<rect
			x="29.000023"
			y="30"
			width="1"
			height="1"
			style="fill:#cecece"
			id="rect262"/>
	<!-- bottom -->
	<polygon
			points="15,39 15,38 17,38 17,39 "
			style="fill:#912800"
			id="polygon264"
			transform="translate(-6,-6)"/>
	<polygon
			points="17,39 17,38 18,38 18,39 "
			style="fill:#b10e22"
			id="polygon266"
			transform="translate(-6,-6)"/>
	<polygon
			points="18,39 18,38 19,38 19,39 "
			style="fill:#b11125"
			id="polygon268"
			transform="translate(-6,-6)"/>
	<polygon
			points="18,42 18,39 19,39 19,42 "
			style="fill:#dc2e16"
			id="polygon270"
			transform="translate(-6,-6)"/>
	<polygon
			points="19,39 19,38 21,38 21,39 "
			style="fill:#912b0c"
			id="polygon272"
			transform="translate(-6,-6)"/>
	<polygon
			points="19,42 19,39 20,39 20,42 "
			style="fill:#b11527"
			id="polygon274"
			transform="translate(-6,-6)"/>
	<polygon
			points="20,42 20,39 21,39 21,42 "
			style="fill:#902d11"
			id="polygon276"
			transform="translate(-6,-6)"/>
	<polygon
			points="21,39 21,38 22,38 22,39 "
			style="fill:#b10e22"
			id="polygon278"
			transform="translate(-6,-6)"/>
	<polygon
			points="22,39 22,38 23,38 23,39 "
			style="fill:#b11125"
			id="polygon280"
			transform="translate(-6,-6)"/>
	<polygon
			points="21,42 21,39 23,39 23,42 "
			style="fill:#db2f1a"
			id="polygon282"
			transform="translate(-6,-6)"/>
	<polygon
			points="23,39 23,38 25,38 25,39 "
			style="fill:#912b0c"
			id="polygon284"
			transform="translate(-6,-6)"/>
	<polygon
			points="23,42 23,39 24,39 24,42 "
			style="fill:#b11527"
			id="polygon286"
			transform="translate(-6,-6)"/>
	<polygon
			points="24,42 24,39 25,39 25,42 "
			style="fill:#902d11"
			id="polygon288"
			transform="translate(-6,-6)"/>
	<polygon
			points="25,39 25,38 26,38 26,39 "
			style="fill:#b10e22"
			id="polygon290"
			transform="translate(-6,-6)"/>
	<polygon
			points="26,39 26,38 27,38 27,39 "
			style="fill:#b11125"
			id="polygon292"
			transform="translate(-6,-6)"/>
	<polygon
			points="25,42 25,39 27,39 27,42 "
			style="fill:#db2f1a"
			id="polygon294"
			transform="translate(-6,-6)"/>
	<polygon
			points="27,39 27,38 29,38 29,39 "
			style="fill:#912b0c"
			id="polygon296"
			transform="translate(-6,-6)"/>
	<polygon
			points="29,39 29,38 30,38 30,39 "
			style="fill:#b10e22"
			id="polygon298"
			transform="translate(-6,-6)"/>
	<polygon
			points="30,42 30,39 31,39 31,42 "
			style="fill:#db2f1a"
			id="polygon300"
			transform="translate(-6,-6)"/>
	<polygon
			points="31,42 31,39 32,39 32,42 "
			style="fill:#b11527"
			id="polygon302"
			transform="translate(-6,-6)"/>
	<polygon
			points="32,42 32,39 33,39 33,42 "
			style="fill:#902d11"
			id="polygon304"
			transform="translate(-6,-6)"/>
	<polygon
			points="33,39 33,38 34,38 34,39 "
			style="fill:#b11125"
			id="polygon306"
			transform="translate(-6,-6)"/>
	<polygon
			points="34,39 34,38 35,38 35,39 "
			style="fill:#b10e22"
			id="polygon308"
			transform="translate(-6,-6)"/>
	<polygon
			points="35,39 35,38 36,38 36,39 "
			style="fill:#912900"
			id="polygon310"
			transform="translate(-6,-6)"/>
	<!-- TNT END -->
</svg>
